<svg width="48" height="48" viewBox="0 0 48 48" fill="none" xmlns="http://www.w3.org/2000/svg">
<path d="M0 24C0 10.7452 10.7452 0 24 0C37.2548 0 48 10.7452 48 24C48 37.2548 37.2548 48 24 48C10.7452 48 0 37.2548 0 24Z" fill="#EFF6FF"/>
<path d="M24 34C29.5228 34 34 29.5228 34 24C34 18.4772 29.5228 14 24 14C18.4772 14 14 18.4772 14 24C14 29.5228 18.4772 34 24 34Z" stroke="#2F4B94" stroke-width="2" stroke-linecap="round" stroke-linejoin="round"/>
<path d="M24 25C25.6569 25 27 23.6569 27 22C27 20.3431 25.6569 19 24 19C22.3431 19 21 20.3431 21 22C21 23.6569 22.3431 25 24 25Z" stroke="#2F4B94" stroke-width="2" stroke-linecap="round" stroke-linejoin="round"/>
<path d="M19 32.662V31C19 30.4696 19.2107 29.9609 19.5858 29.5858C19.9609 29.2107 20.4696 29 21 29H27C27.5304 29 28.0391 29.2107 28.4142 29.5858C28.7893 29.9609 29 30.4696 29 31V32.662" stroke="#2F4B94" stroke-width="2" stroke-linecap="round" stroke-linejoin="round"/>
</svg>
