<svg width="48" height="48" viewBox="0 0 48 48" fill="none" xmlns="http://www.w3.org/2000/svg">
<path d="M0 24C0 10.7452 10.7452 0 24 0C37.2548 0 48 10.7452 48 24C48 37.2548 37.2548 48 24 48C10.7452 48 0 37.2548 0 24Z" fill="#EFF6FF"/>
<path d="M28 32V16C28 15.4696 27.7893 14.9609 27.4142 14.5858C27.0391 14.2107 26.5304 14 26 14H22C21.4696 14 20.9609 14.2107 20.5858 14.5858C20.2107 14.9609 20 15.4696 20 16V32" stroke="#2F4B94" stroke-width="2" stroke-linecap="round" stroke-linejoin="round"/>
<path d="M32 18H16C14.8954 18 14 18.8954 14 20V30C14 31.1046 14.8954 32 16 32H32C33.1046 32 34 31.1046 34 30V20C34 18.8954 33.1046 18 32 18Z" stroke="#2F4B94" stroke-width="2" stroke-linecap="round" stroke-linejoin="round"/>
</svg>
