<svg width="48" height="48" viewBox="0 0 48 48" fill="none" xmlns="http://www.w3.org/2000/svg">
<path d="M0 24C0 10.7452 10.7452 0 24 0C37.2548 0 48 10.7452 48 24C48 37.2548 37.2548 48 24 48C10.7452 48 0 37.2548 0 24Z" fill="#EFF6FF"/>
<path d="M33 27C33 27.5304 32.7893 28.0391 32.4142 28.4142C32.0391 28.7893 31.5304 29 31 29H19L15 33V17C15 16.4696 15.2107 15.9609 15.5858 15.5858C15.9609 15.2107 16.4696 15 17 15H31C31.5304 15 32.0391 15.2107 32.4142 15.5858C32.7893 15.9609 33 16.4696 33 17V27Z" stroke="#2F4B94" stroke-width="2" stroke-linecap="round" stroke-linejoin="round"/>
</svg>
