<svg width="20" height="20" viewBox="0 0 20 20" fill="none" xmlns="http://www.w3.org/2000/svg">
<path d="M10 16.667H17.5" stroke="#2F4B94" stroke-width="1.66667" stroke-linecap="round" stroke-linejoin="round"/>
<path d="M13.6458 3.01811C13.9776 2.68637 14.4275 2.5 14.8967 2.5C15.3658 2.5 15.8158 2.68637 16.1475 3.01811C16.4792 3.34985 16.6656 3.79979 16.6656 4.26895C16.6656 4.7381 16.4792 5.18804 16.1475 5.51978L6.13917 15.5289C5.94091 15.7272 5.69585 15.8722 5.42667 15.9506L3.03333 16.6489C2.96163 16.6699 2.88562 16.6711 2.81326 16.6526C2.7409 16.634 2.67486 16.5964 2.62204 16.5436C2.56922 16.4908 2.53157 16.4247 2.51304 16.3524C2.4945 16.28 2.49575 16.204 2.51667 16.1323L3.215 13.7389C3.29352 13.4701 3.43854 13.2253 3.63667 13.0273L13.6458 3.01811Z" stroke="#2F4B94" stroke-width="1.66667" stroke-linecap="round" stroke-linejoin="round"/>
</svg>
