<svg width="20" height="20" viewBox="0 0 20 20" fill="none" xmlns="http://www.w3.org/2000/svg">
<path d="M3.33398 16.2503V3.75033C3.33398 3.19779 3.55348 2.66789 3.94418 2.27719C4.33488 1.88649 4.86478 1.66699 5.41732 1.66699H15.834C16.055 1.66699 16.267 1.75479 16.4232 1.91107C16.5795 2.06735 16.6673 2.27931 16.6673 2.50033V17.5003C16.6673 17.7213 16.5795 17.9333 16.4232 18.0896C16.267 18.2459 16.055 18.3337 15.834 18.3337H5.41732C4.86478 18.3337 4.33488 18.1142 3.94418 17.7235C3.55348 17.3328 3.33398 16.8029 3.33398 16.2503ZM3.33398 16.2503C3.33398 15.6978 3.55348 15.1679 3.94418 14.7772C4.33488 14.3865 4.86478 14.167 5.41732 14.167H16.6673" stroke="#2F4B94" stroke-width="1.66667" stroke-linecap="round" stroke-linejoin="round"/>
</svg>
