<svg width="28" height="28" viewBox="0 0 28 28" fill="none" xmlns="http://www.w3.org/2000/svg">
<path d="M22 22L16.6667 16.6667M6 12.2222C6 13.0393 6.16094 13.8484 6.47364 14.6034C6.78633 15.3583 7.24466 16.0442 7.82245 16.622C8.40023 17.1998 9.08617 17.6581 9.84108 17.9708C10.596 18.2835 11.4051 18.4444 12.2222 18.4444C13.0393 18.4444 13.8484 18.2835 14.6034 17.9708C15.3583 17.6581 16.0442 17.1998 16.622 16.622C17.1998 16.0442 17.6581 15.3583 17.9708 14.6034C18.2835 13.8484 18.4444 13.0393 18.4444 12.2222C18.4444 11.4051 18.2835 10.596 17.9708 9.84108C17.6581 9.08617 17.1998 8.40023 16.622 7.82245C16.0442 7.24466 15.3583 6.78633 14.6034 6.47364C13.8484 6.16094 13.0393 6 12.2222 6C11.4051 6 10.596 6.16094 9.84108 6.47364C9.08617 6.78633 8.40023 7.24466 7.82245 7.82245C7.24466 8.40023 6.78633 9.08617 6.47364 9.84108C6.16094 10.596 6 11.4051 6 12.2222Z" stroke="#9C9C9C" stroke-width="1.67" stroke-linecap="round" stroke-linejoin="round"/>
</svg>
