<svg width="60" height="9" viewBox="0 0 60 9" fill="none" xmlns="http://www.w3.org/2000/svg">
<path d="M60 4.33014L52.5 1.19209e-05V8.66027L60 4.33014ZM0.122449 5.08014C0.536663 5.08014 0.872449 4.74435 0.872449 4.33014C0.872449 3.91593 0.536663 3.58014 0.122449 3.58014V4.33014V5.08014ZM1.59184 3.58014C1.17762 3.58014 0.841837 3.91593 0.841837 4.33014C0.841837 4.74435 1.17762 5.08014 1.59184 5.08014V4.33014V3.58014ZM1.83673 5.08014C2.25095 5.08014 2.58673 4.74435 2.58673 4.33014C2.58673 3.91593 2.25095 3.58014 1.83673 3.58014V4.33014V5.08014ZM3.30612 3.58014C2.89191 3.58014 2.55612 3.91593 2.55612 4.33014C2.55612 4.74435 2.89191 5.08014 3.30612 5.08014V4.33014V3.58014ZM3.55102 5.08014C3.96523 5.08014 4.30102 4.74435 4.30102 4.33014C4.30102 3.91593 3.96523 3.58014 3.55102 3.58014V4.33014V5.08014ZM5.02041 3.58014C4.60619 3.58014 4.27041 3.91593 4.27041 4.33014C4.27041 4.74435 4.60619 5.08014 5.02041 5.08014V4.33014V3.58014ZM5.26531 5.08014C5.67952 5.08014 6.01531 4.74435 6.01531 4.33014C6.01531 3.91593 5.67952 3.58014 5.26531 3.58014V4.33014V5.08014ZM6.73469 3.58014C6.32048 3.58014 5.98469 3.91593 5.98469 4.33014C5.98469 4.74435 6.32048 5.08014 6.73469 5.08014V4.33014V3.58014ZM6.97959 5.08014C7.39381 5.08014 7.72959 4.74435 7.72959 4.33014C7.72959 3.91593 7.39381 3.58014 6.97959 3.58014V4.33014V5.08014ZM8.44898 3.58014C8.03477 3.58014 7.69898 3.91593 7.69898 4.33014C7.69898 4.74435 8.03477 5.08014 8.44898 5.08014V4.33014V3.58014ZM8.69388 5.08014C9.10809 5.08014 9.44388 4.74435 9.44388 4.33014C9.44388 3.91593 9.10809 3.58014 8.69388 3.58014V4.33014V5.08014ZM10.1633 3.58014C9.74905 3.58014 9.41327 3.91593 9.41327 4.33014C9.41327 4.74435 9.74905 5.08014 10.1633 5.08014V4.33014V3.58014ZM10.4082 5.08014C10.8224 5.08014 11.1582 4.74435 11.1582 4.33014C11.1582 3.91593 10.8224 3.58014 10.4082 3.58014V4.33014V5.08014ZM11.8776 3.58014C11.4633 3.58014 11.1276 3.91593 11.1276 4.33014C11.1276 4.74435 11.4633 5.08014 11.8776 5.08014V4.33014V3.58014ZM12.1224 5.08014C12.5367 5.08014 12.8724 4.74435 12.8724 4.33014C12.8724 3.91593 12.5367 3.58014 12.1224 3.58014V4.33014V5.08014ZM13.5918 3.58014C13.1776 3.58014 12.8418 3.91593 12.8418 4.33014C12.8418 4.74435 13.1776 5.08014 13.5918 5.08014V4.33014V3.58014ZM13.8367 5.08014C14.2509 5.08014 14.5867 4.74435 14.5867 4.33014C14.5867 3.91593 14.2509 3.58014 13.8367 3.58014V4.33014V5.08014ZM15.3061 3.58014C14.8919 3.58014 14.5561 3.91593 14.5561 4.33014C14.5561 4.74435 14.8919 5.08014 15.3061 5.08014V4.33014V3.58014ZM15.551 5.08014C15.9652 5.08014 16.301 4.74435 16.301 4.33014C16.301 3.91593 15.9652 3.58014 15.551 3.58014V4.33014V5.08014ZM17.0204 3.58014C16.6062 3.58014 16.2704 3.91593 16.2704 4.33014C16.2704 4.74435 16.6062 5.08014 17.0204 5.08014V4.33014V3.58014ZM17.2653 5.08014C17.6795 5.08014 18.0153 4.74435 18.0153 4.33014C18.0153 3.91593 17.6795 3.58014 17.2653 3.58014V4.33014V5.08014ZM18.7347 3.58014C18.3205 3.58014 17.9847 3.91593 17.9847 4.33014C17.9847 4.74435 18.3205 5.08014 18.7347 5.08014V4.33014V3.58014ZM18.9796 5.08014C19.3938 5.08014 19.7296 4.74435 19.7296 4.33014C19.7296 3.91593 19.3938 3.58014 18.9796 3.58014V4.33014V5.08014ZM20.449 3.58014C20.0348 3.58014 19.699 3.91593 19.699 4.33014C19.699 4.74435 20.0348 5.08014 20.449 5.08014V4.33014V3.58014ZM20.6939 5.08014C21.1081 5.08014 21.4439 4.74435 21.4439 4.33014C21.4439 3.91593 21.1081 3.58014 20.6939 3.58014V4.33014V5.08014ZM22.1633 3.58014C21.7491 3.58014 21.4133 3.91593 21.4133 4.33014C21.4133 4.74435 21.7491 5.08014 22.1633 5.08014V4.33014V3.58014ZM22.4082 5.08014C22.8224 5.08014 23.1582 4.74435 23.1582 4.33014C23.1582 3.91593 22.8224 3.58014 22.4082 3.58014V4.33014V5.08014ZM23.8775 3.58014C23.4633 3.58014 23.1275 3.91593 23.1275 4.33014C23.1275 4.74435 23.4633 5.08014 23.8775 5.08014V4.33014V3.58014ZM24.1224 5.08014C24.5367 5.08014 24.8724 4.74435 24.8724 4.33014C24.8724 3.91593 24.5367 3.58014 24.1224 3.58014V4.33014V5.08014ZM25.5918 3.58014C25.1776 3.58014 24.8418 3.91593 24.8418 4.33014C24.8418 4.74435 25.1776 5.08014 25.5918 5.08014V4.33014V3.58014ZM25.8367 5.08014C26.2509 5.08014 26.5867 4.74435 26.5867 4.33014C26.5867 3.91593 26.2509 3.58014 25.8367 3.58014V4.33014V5.08014ZM27.3061 3.58014C26.8919 3.58014 26.5561 3.91593 26.5561 4.33014C26.5561 4.74435 26.8919 5.08014 27.3061 5.08014V4.33014V3.58014ZM27.551 5.08014C27.9652 5.08014 28.301 4.74435 28.301 4.33014C28.301 3.91593 27.9652 3.58014 27.551 3.58014V4.33014V5.08014ZM29.0204 3.58014C28.6062 3.58014 28.2704 3.91593 28.2704 4.33014C28.2704 4.74435 28.6062 5.08014 29.0204 5.08014V4.33014V3.58014ZM29.2653 5.08014C29.6795 5.08014 30.0153 4.74435 30.0153 4.33014C30.0153 3.91593 29.6795 3.58014 29.2653 3.58014V4.33014V5.08014ZM30.7347 3.58014C30.3205 3.58014 29.9847 3.91593 29.9847 4.33014C29.9847 4.74435 30.3205 5.08014 30.7347 5.08014V4.33014V3.58014ZM30.9796 5.08014C31.3938 5.08014 31.7296 4.74435 31.7296 4.33014C31.7296 3.91593 31.3938 3.58014 30.9796 3.58014V4.33014V5.08014ZM32.449 3.58014C32.0348 3.58014 31.699 3.91593 31.699 4.33014C31.699 4.74435 32.0348 5.08014 32.449 5.08014V4.33014V3.58014ZM32.6939 5.08014C33.1081 5.08014 33.4439 4.74435 33.4439 4.33014C33.4439 3.91593 33.1081 3.58014 32.6939 3.58014V4.33014V5.08014ZM34.1633 3.58014C33.749 3.58014 33.4133 3.91593 33.4133 4.33014C33.4133 4.74435 33.749 5.08014 34.1633 5.08014V4.33014V3.58014ZM34.4082 5.08014C34.8224 5.08014 35.1582 4.74435 35.1582 4.33014C35.1582 3.91593 34.8224 3.58014 34.4082 3.58014V4.33014V5.08014ZM35.8775 3.58014C35.4633 3.58014 35.1275 3.91593 35.1275 4.33014C35.1275 4.74435 35.4633 5.08014 35.8775 5.08014V4.33014V3.58014ZM36.1224 5.08014C36.5367 5.08014 36.8724 4.74435 36.8724 4.33014C36.8724 3.91593 36.5367 3.58014 36.1224 3.58014V4.33014V5.08014ZM37.5918 3.58014C37.1776 3.58014 36.8418 3.91593 36.8418 4.33014C36.8418 4.74435 37.1776 5.08014 37.5918 5.08014V4.33014V3.58014ZM37.8367 5.08014C38.2509 5.08014 38.5867 4.74435 38.5867 4.33014C38.5867 3.91593 38.2509 3.58014 37.8367 3.58014V4.33014V5.08014ZM39.3061 3.58014C38.8919 3.58014 38.5561 3.91593 38.5561 4.33014C38.5561 4.74435 38.8919 5.08014 39.3061 5.08014V4.33014V3.58014ZM39.551 5.08014C39.9652 5.08014 40.301 4.74435 40.301 4.33014C40.301 3.91593 39.9652 3.58014 39.551 3.58014V4.33014V5.08014ZM41.0204 3.58014C40.6062 3.58014 40.2704 3.91593 40.2704 4.33014C40.2704 4.74435 40.6062 5.08014 41.0204 5.08014V4.33014V3.58014ZM41.2653 5.08014C41.6795 5.08014 42.0153 4.74435 42.0153 4.33014C42.0153 3.91593 41.6795 3.58014 41.2653 3.58014V4.33014V5.08014ZM42.7347 3.58014C42.3205 3.58014 41.9847 3.91593 41.9847 4.33014C41.9847 4.74435 42.3205 5.08014 42.7347 5.08014V4.33014V3.58014ZM42.9796 5.08014C43.3938 5.08014 43.7296 4.74435 43.7296 4.33014C43.7296 3.91593 43.3938 3.58014 42.9796 3.58014V4.33014V5.08014ZM44.449 3.58014C44.0348 3.58014 43.699 3.91593 43.699 4.33014C43.699 4.74435 44.0348 5.08014 44.449 5.08014V4.33014V3.58014ZM44.6939 5.08014C45.1081 5.08014 45.4439 4.74435 45.4439 4.33014C45.4439 3.91593 45.1081 3.58014 44.6939 3.58014V4.33014V5.08014ZM46.1633 3.58014C45.7491 3.58014 45.4133 3.91593 45.4133 4.33014C45.4133 4.74435 45.7491 5.08014 46.1633 5.08014V4.33014V3.58014ZM46.4082 5.08014C46.8224 5.08014 47.1582 4.74435 47.1582 4.33014C47.1582 3.91593 46.8224 3.58014 46.4082 3.58014V4.33014V5.08014ZM47.8776 3.58014C47.4633 3.58014 47.1276 3.91593 47.1276 4.33014C47.1276 4.74435 47.4633 5.08014 47.8776 5.08014V4.33014V3.58014ZM48.1225 5.08014C48.5367 5.08014 48.8725 4.74435 48.8725 4.33014C48.8725 3.91593 48.5367 3.58014 48.1225 3.58014V4.33014V5.08014ZM49.5918 3.58014C49.1776 3.58014 48.8418 3.91593 48.8418 4.33014C48.8418 4.74435 49.1776 5.08014 49.5918 5.08014V4.33014V3.58014ZM49.8367 5.08014C50.251 5.08014 50.5867 4.74435 50.5867 4.33014C50.5867 3.91593 50.251 3.58014 49.8367 3.58014V4.33014V5.08014ZM51.3061 3.58014C50.8919 3.58014 50.5561 3.91593 50.5561 4.33014C50.5561 4.74435 50.8919 5.08014 51.3061 5.08014V4.33014V3.58014ZM51.551 5.08014C51.9652 5.08014 52.301 4.74435 52.301 4.33014C52.301 3.91593 51.9652 3.58014 51.551 3.58014V4.33014V5.08014ZM53.0204 3.58014C52.6062 3.58014 52.2704 3.91593 52.2704 4.33014C52.2704 4.74435 52.6062 5.08014 53.0204 5.08014V4.33014V3.58014ZM53.2653 5.08014C53.6795 5.08014 54.0153 4.74435 54.0153 4.33014C54.0153 3.91593 53.6795 3.58014 53.2653 3.58014V4.33014V5.08014ZM54.7347 3.58014C54.3205 3.58014 53.9847 3.91593 53.9847 4.33014C53.9847 4.74435 54.3205 5.08014 54.7347 5.08014V4.33014V3.58014ZM54.9796 5.08014C55.3938 5.08014 55.7296 4.74435 55.7296 4.33014C55.7296 3.91593 55.3938 3.58014 54.9796 3.58014V4.33014V5.08014ZM56.449 3.58014C56.0348 3.58014 55.699 3.91593 55.699 4.33014C55.699 4.74435 56.0348 5.08014 56.449 5.08014V4.33014V3.58014ZM56.6939 5.08014C57.1081 5.08014 57.4439 4.74435 57.4439 4.33014C57.4439 3.91593 57.1081 3.58014 56.6939 3.58014V4.33014V5.08014ZM58.1633 3.58014C57.7491 3.58014 57.4133 3.91593 57.4133 4.33014C57.4133 4.74435 57.7491 5.08014 58.1633 5.08014V4.33014V3.58014ZM58.4082 5.08014C58.8224 5.08014 59.1582 4.74435 59.1582 4.33014C59.1582 3.91593 58.8224 3.58014 58.4082 3.58014V4.33014V5.08014ZM59.8776 3.58014C59.4633 3.58014 59.1276 3.91593 59.1276 4.33014C59.1276 4.74435 59.4633 5.08014 59.8776 5.08014V4.33014V3.58014ZM0 4.33014V5.08014H0.122449V4.33014V3.58014H0V4.33014ZM1.59184 4.33014V5.08014H1.83673V4.33014V3.58014H1.59184V4.33014ZM3.30612 4.33014V5.08014H3.55102V4.33014V3.58014H3.30612V4.33014ZM5.02041 4.33014V5.08014H5.26531V4.33014V3.58014H5.02041V4.33014ZM6.73469 4.33014V5.08014H6.97959V4.33014V3.58014H6.73469V4.33014ZM8.44898 4.33014V5.08014H8.69388V4.33014V3.58014H8.44898V4.33014ZM10.1633 4.33014V5.08014H10.4082V4.33014V3.58014H10.1633V4.33014ZM11.8776 4.33014V5.08014H12.1224V4.33014V3.58014H11.8776V4.33014ZM13.5918 4.33014V5.08014H13.8367V4.33014V3.58014H13.5918V4.33014ZM15.3061 4.33014V5.08014H15.551V4.33014V3.58014H15.3061V4.33014ZM17.0204 4.33014V5.08014H17.2653V4.33014V3.58014H17.0204V4.33014ZM18.7347 4.33014V5.08014H18.9796V4.33014V3.58014H18.7347V4.33014ZM20.449 4.33014V5.08014H20.6939V4.33014V3.58014H20.449V4.33014ZM22.1633 4.33014V5.08014H22.4082V4.33014V3.58014H22.1633V4.33014ZM23.8775 4.33014V5.08014H24.1224V4.33014V3.58014H23.8775V4.33014ZM25.5918 4.33014V5.08014H25.8367V4.33014V3.58014H25.5918V4.33014ZM27.3061 4.33014V5.08014H27.551V4.33014V3.58014H27.3061V4.33014ZM29.0204 4.33014V5.08014H29.2653V4.33014V3.58014H29.0204V4.33014ZM30.7347 4.33014V5.08014H30.9796V4.33014V3.58014H30.7347V4.33014ZM32.449 4.33014V5.08014H32.6939V4.33014V3.58014H32.449V4.33014ZM34.1633 4.33014V5.08014H34.4082V4.33014V3.58014H34.1633V4.33014ZM35.8775 4.33014V5.08014H36.1224V4.33014V3.58014H35.8775V4.33014ZM37.5918 4.33014V5.08014H37.8367V4.33014V3.58014H37.5918V4.33014ZM39.3061 4.33014V5.08014H39.551V4.33014V3.58014H39.3061V4.33014ZM41.0204 4.33014V5.08014H41.2653V4.33014V3.58014H41.0204V4.33014ZM42.7347 4.33014V5.08014H42.9796V4.33014V3.58014H42.7347V4.33014ZM44.449 4.33014V5.08014H44.6939V4.33014V3.58014H44.449V4.33014ZM46.1633 4.33014V5.08014H46.4082V4.33014V3.58014H46.1633V4.33014ZM47.8776 4.33014V5.08014H48.1225V4.33014V3.58014H47.8776V4.33014ZM49.5918 4.33014V5.08014H49.8367V4.33014V3.58014H49.5918V4.33014ZM51.3061 4.33014V5.08014H51.551V4.33014V3.58014H51.3061V4.33014ZM53.0204 4.33014V5.08014H53.2653V4.33014V3.58014H53.0204V4.33014ZM54.7347 4.33014V5.08014H54.9796V4.33014V3.58014H54.7347V4.33014ZM56.449 4.33014V5.08014H56.6939V4.33014V3.58014H56.449V4.33014ZM58.1633 4.33014V5.08014H58.4082V4.33014V3.58014H58.1633V4.33014ZM60 4.33014L52.5 1.19209e-05V8.66027L60 4.33014ZM0.122449 5.08014C0.536663 5.08014 0.872449 4.74435 0.872449 4.33014C0.872449 3.91593 0.536663 3.58014 0.122449 3.58014V4.33014V5.08014ZM1.59184 3.58014C1.17762 3.58014 0.841837 3.91593 0.841837 4.33014C0.841837 4.74435 1.17762 5.08014 1.59184 5.08014V4.33014V3.58014ZM1.83673 5.08014C2.25095 5.08014 2.58673 4.74435 2.58673 4.33014C2.58673 3.91593 2.25095 3.58014 1.83673 3.58014V4.33014V5.08014ZM3.30612 3.58014C2.89191 3.58014 2.55612 3.91593 2.55612 4.33014C2.55612 4.74435 2.89191 5.08014 3.30612 5.08014V4.33014V3.58014ZM3.55102 5.08014C3.96523 5.08014 4.30102 4.74435 4.30102 4.33014C4.30102 3.91593 3.96523 3.58014 3.55102 3.58014V4.33014V5.08014ZM5.02041 3.58014C4.60619 3.58014 4.27041 3.91593 4.27041 4.33014C4.27041 4.74435 4.60619 5.08014 5.02041 5.08014V4.33014V3.58014ZM5.26531 5.08014C5.67952 5.08014 6.01531 4.74435 6.01531 4.33014C6.01531 3.91593 5.67952 3.58014 5.26531 3.58014V4.33014V5.08014ZM6.73469 3.58014C6.32048 3.58014 5.98469 3.91593 5.98469 4.33014C5.98469 4.74435 6.32048 5.08014 6.73469 5.08014V4.33014V3.58014ZM6.97959 5.08014C7.39381 5.08014 7.72959 4.74435 7.72959 4.33014C7.72959 3.91593 7.39381 3.58014 6.97959 3.58014V4.33014V5.08014ZM8.44898 3.58014C8.03477 3.58014 7.69898 3.91593 7.69898 4.33014C7.69898 4.74435 8.03477 5.08014 8.44898 5.08014V4.33014V3.58014ZM8.69388 5.08014C9.10809 5.08014 9.44388 4.74435 9.44388 4.33014C9.44388 3.91593 9.10809 3.58014 8.69388 3.58014V4.33014V5.08014ZM10.1633 3.58014C9.74905 3.58014 9.41327 3.91593 9.41327 4.33014C9.41327 4.74435 9.74905 5.08014 10.1633 5.08014V4.33014V3.58014ZM10.4082 5.08014C10.8224 5.08014 11.1582 4.74435 11.1582 4.33014C11.1582 3.91593 10.8224 3.58014 10.4082 3.58014V4.33014V5.08014ZM11.8776 3.58014C11.4633 3.58014 11.1276 3.91593 11.1276 4.33014C11.1276 4.74435 11.4633 5.08014 11.8776 5.08014V4.33014V3.58014ZM12.1224 5.08014C12.5367 5.08014 12.8724 4.74435 12.8724 4.33014C12.8724 3.91593 12.5367 3.58014 12.1224 3.58014V4.33014V5.08014ZM13.5918 3.58014C13.1776 3.58014 12.8418 3.91593 12.8418 4.33014C12.8418 4.74435 13.1776 5.08014 13.5918 5.08014V4.33014V3.58014ZM13.8367 5.08014C14.2509 5.08014 14.5867 4.74435 14.5867 4.33014C14.5867 3.91593 14.2509 3.58014 13.8367 3.58014V4.33014V5.08014ZM15.3061 3.58014C14.8919 3.58014 14.5561 3.91593 14.5561 4.33014C14.5561 4.74435 14.8919 5.08014 15.3061 5.08014V4.33014V3.58014ZM15.551 5.08014C15.9652 5.08014 16.301 4.74435 16.301 4.33014C16.301 3.91593 15.9652 3.58014 15.551 3.58014V4.33014V5.08014ZM17.0204 3.58014C16.6062 3.58014 16.2704 3.91593 16.2704 4.33014C16.2704 4.74435 16.6062 5.08014 17.0204 5.08014V4.33014V3.58014ZM17.2653 5.08014C17.6795 5.08014 18.0153 4.74435 18.0153 4.33014C18.0153 3.91593 17.6795 3.58014 17.2653 3.58014V4.33014V5.08014ZM18.7347 3.58014C18.3205 3.58014 17.9847 3.91593 17.9847 4.33014C17.9847 4.74435 18.3205 5.08014 18.7347 5.08014V4.33014V3.58014ZM18.9796 5.08014C19.3938 5.08014 19.7296 4.74435 19.7296 4.33014C19.7296 3.91593 19.3938 3.58014 18.9796 3.58014V4.33014V5.08014ZM20.449 3.58014C20.0348 3.58014 19.699 3.91593 19.699 4.33014C19.699 4.74435 20.0348 5.08014 20.449 5.08014V4.33014V3.58014ZM20.6939 5.08014C21.1081 5.08014 21.4439 4.74435 21.4439 4.33014C21.4439 3.91593 21.1081 3.58014 20.6939 3.58014V4.33014V5.08014ZM22.1633 3.58014C21.7491 3.58014 21.4133 3.91593 21.4133 4.33014C21.4133 4.74435 21.7491 5.08014 22.1633 5.08014V4.33014V3.58014ZM22.4082 5.08014C22.8224 5.08014 23.1582 4.74435 23.1582 4.33014C23.1582 3.91593 22.8224 3.58014 22.4082 3.58014V4.33014V5.08014ZM23.8775 3.58014C23.4633 3.58014 23.1275 3.91593 23.1275 4.33014C23.1275 4.74435 23.4633 5.08014 23.8775 5.08014V4.33014V3.58014ZM24.1224 5.08014C24.5367 5.08014 24.8724 4.74435 24.8724 4.33014C24.8724 3.91593 24.5367 3.58014 24.1224 3.58014V4.33014V5.08014ZM25.5918 3.58014C25.1776 3.58014 24.8418 3.91593 24.8418 4.33014C24.8418 4.74435 25.1776 5.08014 25.5918 5.08014V4.33014V3.58014ZM25.8367 5.08014C26.2509 5.08014 26.5867 4.74435 26.5867 4.33014C26.5867 3.91593 26.2509 3.58014 25.8367 3.58014V4.33014V5.08014ZM27.3061 3.58014C26.8919 3.58014 26.5561 3.91593 26.5561 4.33014C26.5561 4.74435 26.8919 5.08014 27.3061 5.08014V4.33014V3.58014ZM27.551 5.08014C27.9652 5.08014 28.301 4.74435 28.301 4.33014C28.301 3.91593 27.9652 3.58014 27.551 3.58014V4.33014V5.08014ZM29.0204 3.58014C28.6062 3.58014 28.2704 3.91593 28.2704 4.33014C28.2704 4.74435 28.6062 5.08014 29.0204 5.08014V4.33014V3.58014ZM29.2653 5.08014C29.6795 5.08014 30.0153 4.74435 30.0153 4.33014C30.0153 3.91593 29.6795 3.58014 29.2653 3.58014V4.33014V5.08014ZM30.7347 3.58014C30.3205 3.58014 29.9847 3.91593 29.9847 4.33014C29.9847 4.74435 30.3205 5.08014 30.7347 5.08014V4.33014V3.58014ZM30.9796 5.08014C31.3938 5.08014 31.7296 4.74435 31.7296 4.33014C31.7296 3.91593 31.3938 3.58014 30.9796 3.58014V4.33014V5.08014ZM32.449 3.58014C32.0348 3.58014 31.699 3.91593 31.699 4.33014C31.699 4.74435 32.0348 5.08014 32.449 5.08014V4.33014V3.58014ZM32.6939 5.08014C33.1081 5.08014 33.4439 4.74435 33.4439 4.33014C33.4439 3.91593 33.1081 3.58014 32.6939 3.58014V4.33014V5.08014ZM34.1633 3.58014C33.749 3.58014 33.4133 3.91593 33.4133 4.33014C33.4133 4.74435 33.749 5.08014 34.1633 5.08014V4.33014V3.58014ZM34.4082 5.08014C34.8224 5.08014 35.1582 4.74435 35.1582 4.33014C35.1582 3.91593 34.8224 3.58014 34.4082 3.58014V4.33014V5.08014ZM35.8775 3.58014C35.4633 3.58014 35.1275 3.91593 35.1275 4.33014C35.1275 4.74435 35.4633 5.08014 35.8775 5.08014V4.33014V3.58014ZM36.1224 5.08014C36.5367 5.08014 36.8724 4.74435 36.8724 4.33014C36.8724 3.91593 36.5367 3.58014 36.1224 3.58014V4.33014V5.08014ZM37.5918 3.58014C37.1776 3.58014 36.8418 3.91593 36.8418 4.33014C36.8418 4.74435 37.1776 5.08014 37.5918 5.08014V4.33014V3.58014ZM37.8367 5.08014C38.2509 5.08014 38.5867 4.74435 38.5867 4.33014C38.5867 3.91593 38.2509 3.58014 37.8367 3.58014V4.33014V5.08014ZM39.3061 3.58014C38.8919 3.58014 38.5561 3.91593 38.5561 4.33014C38.5561 4.74435 38.8919 5.08014 39.3061 5.08014V4.33014V3.58014ZM39.551 5.08014C39.9652 5.08014 40.301 4.74435 40.301 4.33014C40.301 3.91593 39.9652 3.58014 39.551 3.58014V4.33014V5.08014ZM41.0204 3.58014C40.6062 3.58014 40.2704 3.91593 40.2704 4.33014C40.2704 4.74435 40.6062 5.08014 41.0204 5.08014V4.33014V3.58014ZM41.2653 5.08014C41.6795 5.08014 42.0153 4.74435 42.0153 4.33014C42.0153 3.91593 41.6795 3.58014 41.2653 3.58014V4.33014V5.08014ZM42.7347 3.58014C42.3205 3.58014 41.9847 3.91593 41.9847 4.33014C41.9847 4.74435 42.3205 5.08014 42.7347 5.08014V4.33014V3.58014ZM42.9796 5.08014C43.3938 5.08014 43.7296 4.74435 43.7296 4.33014C43.7296 3.91593 43.3938 3.58014 42.9796 3.58014V4.33014V5.08014ZM44.449 3.58014C44.0348 3.58014 43.699 3.91593 43.699 4.33014C43.699 4.74435 44.0348 5.08014 44.449 5.08014V4.33014V3.58014ZM44.6939 5.08014C45.1081 5.08014 45.4439 4.74435 45.4439 4.33014C45.4439 3.91593 45.1081 3.58014 44.6939 3.58014V4.33014V5.08014ZM46.1633 3.58014C45.7491 3.58014 45.4133 3.91593 45.4133 4.33014C45.4133 4.74435 45.7491 5.08014 46.1633 5.08014V4.33014V3.58014ZM46.4082 5.08014C46.8224 5.08014 47.1582 4.74435 47.1582 4.33014C47.1582 3.91593 46.8224 3.58014 46.4082 3.58014V4.33014V5.08014ZM47.8776 3.58014C47.4633 3.58014 47.1276 3.91593 47.1276 4.33014C47.1276 4.74435 47.4633 5.08014 47.8776 5.08014V4.33014V3.58014ZM48.1225 5.08014C48.5367 5.08014 48.8725 4.74435 48.8725 4.33014C48.8725 3.91593 48.5367 3.58014 48.1225 3.58014V4.33014V5.08014ZM49.5918 3.58014C49.1776 3.58014 48.8418 3.91593 48.8418 4.33014C48.8418 4.74435 49.1776 5.08014 49.5918 5.08014V4.33014V3.58014ZM49.8367 5.08014C50.251 5.08014 50.5867 4.74435 50.5867 4.33014C50.5867 3.91593 50.251 3.58014 49.8367 3.58014V4.33014V5.08014ZM51.3061 3.58014C50.8919 3.58014 50.5561 3.91593 50.5561 4.33014C50.5561 4.74435 50.8919 5.08014 51.3061 5.08014V4.33014V3.58014ZM51.551 5.08014C51.9652 5.08014 52.301 4.74435 52.301 4.33014C52.301 3.91593 51.9652 3.58014 51.551 3.58014V4.33014V5.08014ZM53.0204 3.58014C52.6062 3.58014 52.2704 3.91593 52.2704 4.33014C52.2704 4.74435 52.6062 5.08014 53.0204 5.08014V4.33014V3.58014ZM53.2653 5.08014C53.6795 5.08014 54.0153 4.74435 54.0153 4.33014C54.0153 3.91593 53.6795 3.58014 53.2653 3.58014V4.33014V5.08014ZM54.7347 3.58014C54.3205 3.58014 53.9847 3.91593 53.9847 4.33014C53.9847 4.74435 54.3205 5.08014 54.7347 5.08014V4.33014V3.58014ZM54.9796 5.08014C55.3938 5.08014 55.7296 4.74435 55.7296 4.33014C55.7296 3.91593 55.3938 3.58014 54.9796 3.58014V4.33014V5.08014ZM56.449 3.58014C56.0348 3.58014 55.699 3.91593 55.699 4.33014C55.699 4.74435 56.0348 5.08014 56.449 5.08014V4.33014V3.58014ZM56.6939 5.08014C57.1081 5.08014 57.4439 4.74435 57.4439 4.33014C57.4439 3.91593 57.1081 3.58014 56.6939 3.58014V4.33014V5.08014ZM58.1633 3.58014C57.7491 3.58014 57.4133 3.91593 57.4133 4.33014C57.4133 4.74435 57.7491 5.08014 58.1633 5.08014V4.33014V3.58014ZM58.4082 5.08014C58.8224 5.08014 59.1582 4.74435 59.1582 4.33014C59.1582 3.91593 58.8224 3.58014 58.4082 3.58014V4.33014V5.08014ZM59.8776 3.58014C59.4633 3.58014 59.1276 3.91593 59.1276 4.33014C59.1276 4.74435 59.4633 5.08014 59.8776 5.08014V4.33014V3.58014ZM0 4.33014V5.08014H0.122449V4.33014V3.58014H0V4.33014ZM1.59184 4.33014V5.08014H1.83673V4.33014V3.58014H1.59184V4.33014ZM3.30612 4.33014V5.08014H3.55102V4.33014V3.58014H3.30612V4.33014ZM5.02041 4.33014V5.08014H5.26531V4.33014V3.58014H5.02041V4.33014ZM6.73469 4.33014V5.08014H6.97959V4.33014V3.58014H6.73469V4.33014ZM8.44898 4.33014V5.08014H8.69388V4.33014V3.58014H8.44898V4.33014ZM10.1633 4.33014V5.08014H10.4082V4.33014V3.58014H10.1633V4.33014ZM11.8776 4.33014V5.08014H12.1224V4.33014V3.58014H11.8776V4.33014ZM13.5918 4.33014V5.08014H13.8367V4.33014V3.58014H13.5918V4.33014ZM15.3061 4.33014V5.08014H15.551V4.33014V3.58014H15.3061V4.33014ZM17.0204 4.33014V5.08014H17.2653V4.33014V3.58014H17.0204V4.33014ZM18.7347 4.33014V5.08014H18.9796V4.33014V3.58014H18.7347V4.33014ZM20.449 4.33014V5.08014H20.6939V4.33014V3.58014H20.449V4.33014ZM22.1633 4.33014V5.08014H22.4082V4.33014V3.58014H22.1633V4.33014ZM23.8775 4.33014V5.08014H24.1224V4.33014V3.58014H23.8775V4.33014ZM25.5918 4.33014V5.08014H25.8367V4.33014V3.58014H25.5918V4.33014ZM27.3061 4.33014V5.08014H27.551V4.33014V3.58014H27.3061V4.33014ZM29.0204 4.33014V5.08014H29.2653V4.33014V3.58014H29.0204V4.33014ZM30.7347 4.33014V5.08014H30.9796V4.33014V3.58014H30.7347V4.33014ZM32.449 4.33014V5.08014H32.6939V4.33014V3.58014H32.449V4.33014ZM34.1633 4.33014V5.08014H34.4082V4.33014V3.58014H34.1633V4.33014ZM35.8775 4.33014V5.08014H36.1224V4.33014V3.58014H35.8775V4.33014ZM37.5918 4.33014V5.08014H37.8367V4.33014V3.58014H37.5918V4.33014ZM39.3061 4.33014V5.08014H39.551V4.33014V3.58014H39.3061V4.33014ZM41.0204 4.33014V5.08014H41.2653V4.33014V3.58014H41.0204V4.33014ZM42.7347 4.33014V5.08014H42.9796V4.33014V3.58014H42.7347V4.33014ZM44.449 4.33014V5.08014H44.6939V4.33014V3.58014H44.449V4.33014ZM46.1633 4.33014V5.08014H46.4082V4.33014V3.58014H46.1633V4.33014ZM47.8776 4.33014V5.08014H48.1225V4.33014V3.58014H47.8776V4.33014ZM49.5918 4.33014V5.08014H49.8367V4.33014V3.58014H49.5918V4.33014ZM51.3061 4.33014V5.08014H51.551V4.33014V3.58014H51.3061V4.33014ZM53.0204 4.33014V5.08014H53.2653V4.33014V3.58014H53.0204V4.33014ZM54.7347 4.33014V5.08014H54.9796V4.33014V3.58014H54.7347V4.33014ZM56.449 4.33014V5.08014H56.6939V4.33014V3.58014H56.449V4.33014ZM58.1633 4.33014V5.08014H58.4082V4.33014V3.58014H58.1633V4.33014Z" fill="#979BAA"/>
</svg>
