<svg width="54" height="12" viewBox="0 0 54 12" fill="none" xmlns="http://www.w3.org/2000/svg">
<path d="M54 5.77344L44 -6.14801e-05L44 11.5469L54 5.77344ZM0.257143 6.77344C0.809428 6.77344 1.25714 6.32572 1.25714 5.77344C1.25714 5.22115 0.809428 4.77344 0.257143 4.77344L0.257143 5.77344L0.257143 6.77344ZM3.34286 4.77344C2.79057 4.77344 2.34286 5.22115 2.34286 5.77344C2.34286 6.32572 2.79057 6.77344 3.34286 6.77344L3.34286 5.77344L3.34286 4.77344ZM3.85714 6.77344C4.40943 6.77344 4.85714 6.32572 4.85714 5.77344C4.85714 5.22115 4.40943 4.77344 3.85714 4.77344L3.85714 5.77344L3.85714 6.77344ZM6.94286 4.77344C6.39057 4.77344 5.94286 5.22115 5.94286 5.77344C5.94286 6.32572 6.39057 6.77344 6.94286 6.77344L6.94286 5.77344L6.94286 4.77344ZM7.45714 6.77344C8.00943 6.77344 8.45714 6.32572 8.45714 5.77344C8.45714 5.22115 8.00943 4.77344 7.45714 4.77344L7.45714 5.77344L7.45714 6.77344ZM10.5429 4.77344C9.99057 4.77344 9.54286 5.22115 9.54286 5.77344C9.54286 6.32572 9.99057 6.77344 10.5429 6.77344L10.5429 5.77344L10.5429 4.77344ZM11.0571 6.77344C11.6094 6.77344 12.0571 6.32572 12.0571 5.77344C12.0571 5.22115 11.6094 4.77344 11.0571 4.77344L11.0571 5.77344L11.0571 6.77344ZM14.1429 4.77344C13.5906 4.77344 13.1429 5.22115 13.1429 5.77344C13.1429 6.32572 13.5906 6.77344 14.1429 6.77344L14.1429 5.77344L14.1429 4.77344ZM14.6571 6.77344C15.2094 6.77344 15.6571 6.32572 15.6571 5.77344C15.6571 5.22115 15.2094 4.77344 14.6571 4.77344L14.6571 5.77344L14.6571 6.77344ZM17.7429 4.77344C17.1906 4.77344 16.7429 5.22115 16.7429 5.77344C16.7429 6.32572 17.1906 6.77344 17.7429 6.77344L17.7429 5.77344L17.7429 4.77344ZM18.2571 6.77344C18.8094 6.77344 19.2571 6.32572 19.2571 5.77344C19.2571 5.22115 18.8094 4.77344 18.2571 4.77344L18.2571 5.77344L18.2571 6.77344ZM21.3429 4.77344C20.7906 4.77344 20.3429 5.22115 20.3429 5.77344C20.3429 6.32572 20.7906 6.77344 21.3429 6.77344L21.3429 5.77344L21.3429 4.77344ZM21.8571 6.77344C22.4094 6.77344 22.8571 6.32572 22.8571 5.77344C22.8571 5.22115 22.4094 4.77344 21.8571 4.77344L21.8571 5.77344L21.8571 6.77344ZM24.9429 4.77344C24.3906 4.77344 23.9429 5.22115 23.9429 5.77344C23.9429 6.32572 24.3906 6.77344 24.9429 6.77344L24.9429 5.77344L24.9429 4.77344ZM25.4571 6.77344C26.0094 6.77344 26.4571 6.32572 26.4571 5.77344C26.4571 5.22116 26.0094 4.77344 25.4571 4.77344L25.4571 5.77344L25.4571 6.77344ZM28.5429 4.77344C27.9906 4.77344 27.5429 5.22116 27.5429 5.77344C27.5429 6.32572 27.9906 6.77344 28.5429 6.77344L28.5429 5.77344L28.5429 4.77344ZM29.0571 6.77344C29.6094 6.77344 30.0571 6.32572 30.0571 5.77344C30.0571 5.22116 29.6094 4.77344 29.0571 4.77344L29.0571 5.77344L29.0571 6.77344ZM32.1429 4.77344C31.5906 4.77344 31.1429 5.22116 31.1429 5.77344C31.1429 6.32572 31.5906 6.77344 32.1429 6.77344L32.1429 5.77344L32.1429 4.77344ZM32.6571 6.77344C33.2094 6.77344 33.6571 6.32573 33.6571 5.77344C33.6571 5.22116 33.2094 4.77344 32.6571 4.77344L32.6571 5.77344L32.6571 6.77344ZM35.7429 4.77344C35.1906 4.77344 34.7429 5.22116 34.7429 5.77344C34.7429 6.32573 35.1906 6.77344 35.7429 6.77344L35.7429 5.77344L35.7429 4.77344ZM36.2571 6.77344C36.8094 6.77344 37.2571 6.32573 37.2571 5.77344C37.2571 5.22116 36.8094 4.77344 36.2571 4.77344L36.2571 5.77344L36.2571 6.77344ZM39.3429 4.77344C38.7906 4.77344 38.3429 5.22116 38.3429 5.77344C38.3429 6.32573 38.7906 6.77344 39.3429 6.77344L39.3429 5.77344L39.3429 4.77344ZM39.8572 6.77344C40.4094 6.77344 40.8572 6.32573 40.8572 5.77344C40.8572 5.22116 40.4094 4.77344 39.8572 4.77344L39.8572 5.77344L39.8572 6.77344ZM42.9429 4.77344C42.3906 4.77344 41.9429 5.22116 41.9429 5.77344C41.9429 6.32573 42.3906 6.77344 42.9429 6.77344L42.9429 5.77344L42.9429 4.77344ZM43.4572 6.77344C44.0094 6.77344 44.4572 6.32573 44.4572 5.77344C44.4572 5.22116 44.0094 4.77344 43.4572 4.77344L43.4572 5.77344L43.4572 6.77344ZM46.5429 4.77344C45.9906 4.77344 45.5429 5.22116 45.5429 5.77344C45.5429 6.32573 45.9906 6.77344 46.5429 6.77344L46.5429 5.77344L46.5429 4.77344ZM47.0572 6.77344C47.6094 6.77344 48.0572 6.32573 48.0572 5.77344C48.0572 5.22116 47.6094 4.77344 47.0572 4.77344L47.0572 5.77344L47.0572 6.77344ZM50.1429 4.77344C49.5906 4.77344 49.1429 5.22116 49.1429 5.77344C49.1429 6.32573 49.5906 6.77344 50.1429 6.77344L50.1429 5.77344L50.1429 4.77344ZM50.6572 6.77344C51.2094 6.77344 51.6572 6.32573 51.6572 5.77344C51.6572 5.22116 51.2094 4.77344 50.6572 4.77344L50.6572 5.77344L50.6572 6.77344ZM53.7429 4.77344C53.1906 4.77344 52.7429 5.22116 52.7429 5.77344C52.7429 6.32573 53.1906 6.77344 53.7429 6.77344L53.7429 5.77344L53.7429 4.77344ZM0 5.77344L-8.74228e-08 6.77344L0.257143 6.77344L0.257143 5.77344L0.257143 4.77344L8.74228e-08 4.77344L0 5.77344ZM3.34286 5.77344L3.34286 6.77344L3.85714 6.77344L3.85714 5.77344L3.85714 4.77344L3.34286 4.77344L3.34286 5.77344ZM6.94286 5.77344L6.94286 6.77344L7.45714 6.77344L7.45714 5.77344L7.45714 4.77344L6.94286 4.77344L6.94286 5.77344ZM10.5429 5.77344L10.5429 6.77344L11.0571 6.77344L11.0571 5.77344L11.0571 4.77344L10.5429 4.77344L10.5429 5.77344ZM14.1429 5.77344L14.1429 6.77344L14.6571 6.77344L14.6571 5.77344L14.6571 4.77344L14.1429 4.77344L14.1429 5.77344ZM17.7429 5.77344L17.7429 6.77344L18.2571 6.77344L18.2571 5.77344L18.2571 4.77344L17.7429 4.77344L17.7429 5.77344ZM21.3429 5.77344L21.3429 6.77344L21.8571 6.77344L21.8571 5.77344L21.8571 4.77344L21.3429 4.77344L21.3429 5.77344ZM24.9429 5.77344L24.9429 6.77344L25.4571 6.77344L25.4571 5.77344L25.4571 4.77344L24.9429 4.77344L24.9429 5.77344ZM28.5429 5.77344L28.5429 6.77344L29.0571 6.77344L29.0571 5.77344L29.0571 4.77344L28.5429 4.77344L28.5429 5.77344ZM32.1429 5.77344L32.1429 6.77344L32.6571 6.77344L32.6571 5.77344L32.6571 4.77344L32.1429 4.77344L32.1429 5.77344ZM35.7429 5.77344L35.7429 6.77344L36.2571 6.77344L36.2571 5.77344L36.2571 4.77344L35.7429 4.77344L35.7429 5.77344ZM39.3429 5.77344L39.3429 6.77344L39.8572 6.77344L39.8572 5.77344L39.8572 4.77344L39.3429 4.77344L39.3429 5.77344ZM42.9429 5.77344L42.9429 6.77344L43.4572 6.77344L43.4572 5.77344L43.4572 4.77344L42.9429 4.77344L42.9429 5.77344ZM46.5429 5.77344L46.5429 6.77344L47.0572 6.77344L47.0572 5.77344L47.0572 4.77344L46.5429 4.77344L46.5429 5.77344ZM50.1429 5.77344L50.1429 6.77344L50.6572 6.77344L50.6572 5.77344L50.6572 4.77344L50.1429 4.77344L50.1429 5.77344ZM54 5.77344L44 -6.14801e-05L44 11.5469L54 5.77344ZM0.257143 6.77344C0.809428 6.77344 1.25714 6.32572 1.25714 5.77344C1.25714 5.22115 0.809428 4.77344 0.257143 4.77344L0.257143 5.77344L0.257143 6.77344ZM3.34286 4.77344C2.79057 4.77344 2.34286 5.22115 2.34286 5.77344C2.34286 6.32572 2.79057 6.77344 3.34286 6.77344L3.34286 5.77344L3.34286 4.77344ZM3.85714 6.77344C4.40943 6.77344 4.85714 6.32572 4.85714 5.77344C4.85714 5.22115 4.40943 4.77344 3.85714 4.77344L3.85714 5.77344L3.85714 6.77344ZM6.94286 4.77344C6.39057 4.77344 5.94286 5.22115 5.94286 5.77344C5.94286 6.32572 6.39057 6.77344 6.94286 6.77344L6.94286 5.77344L6.94286 4.77344ZM7.45714 6.77344C8.00943 6.77344 8.45714 6.32572 8.45714 5.77344C8.45714 5.22115 8.00943 4.77344 7.45714 4.77344L7.45714 5.77344L7.45714 6.77344ZM10.5429 4.77344C9.99057 4.77344 9.54286 5.22115 9.54286 5.77344C9.54286 6.32572 9.99057 6.77344 10.5429 6.77344L10.5429 5.77344L10.5429 4.77344ZM11.0571 6.77344C11.6094 6.77344 12.0571 6.32572 12.0571 5.77344C12.0571 5.22115 11.6094 4.77344 11.0571 4.77344L11.0571 5.77344L11.0571 6.77344ZM14.1429 4.77344C13.5906 4.77344 13.1429 5.22115 13.1429 5.77344C13.1429 6.32572 13.5906 6.77344 14.1429 6.77344L14.1429 5.77344L14.1429 4.77344ZM14.6571 6.77344C15.2094 6.77344 15.6571 6.32572 15.6571 5.77344C15.6571 5.22115 15.2094 4.77344 14.6571 4.77344L14.6571 5.77344L14.6571 6.77344ZM17.7429 4.77344C17.1906 4.77344 16.7429 5.22115 16.7429 5.77344C16.7429 6.32572 17.1906 6.77344 17.7429 6.77344L17.7429 5.77344L17.7429 4.77344ZM18.2571 6.77344C18.8094 6.77344 19.2571 6.32572 19.2571 5.77344C19.2571 5.22115 18.8094 4.77344 18.2571 4.77344L18.2571 5.77344L18.2571 6.77344ZM21.3429 4.77344C20.7906 4.77344 20.3429 5.22115 20.3429 5.77344C20.3429 6.32572 20.7906 6.77344 21.3429 6.77344L21.3429 5.77344L21.3429 4.77344ZM21.8571 6.77344C22.4094 6.77344 22.8571 6.32572 22.8571 5.77344C22.8571 5.22115 22.4094 4.77344 21.8571 4.77344L21.8571 5.77344L21.8571 6.77344ZM24.9429 4.77344C24.3906 4.77344 23.9429 5.22115 23.9429 5.77344C23.9429 6.32572 24.3906 6.77344 24.9429 6.77344L24.9429 5.77344L24.9429 4.77344ZM25.4571 6.77344C26.0094 6.77344 26.4571 6.32572 26.4571 5.77344C26.4571 5.22116 26.0094 4.77344 25.4571 4.77344L25.4571 5.77344L25.4571 6.77344ZM28.5429 4.77344C27.9906 4.77344 27.5429 5.22116 27.5429 5.77344C27.5429 6.32572 27.9906 6.77344 28.5429 6.77344L28.5429 5.77344L28.5429 4.77344ZM29.0571 6.77344C29.6094 6.77344 30.0571 6.32572 30.0571 5.77344C30.0571 5.22116 29.6094 4.77344 29.0571 4.77344L29.0571 5.77344L29.0571 6.77344ZM32.1429 4.77344C31.5906 4.77344 31.1429 5.22116 31.1429 5.77344C31.1429 6.32572 31.5906 6.77344 32.1429 6.77344L32.1429 5.77344L32.1429 4.77344ZM32.6571 6.77344C33.2094 6.77344 33.6571 6.32573 33.6571 5.77344C33.6571 5.22116 33.2094 4.77344 32.6571 4.77344L32.6571 5.77344L32.6571 6.77344ZM35.7429 4.77344C35.1906 4.77344 34.7429 5.22116 34.7429 5.77344C34.7429 6.32573 35.1906 6.77344 35.7429 6.77344L35.7429 5.77344L35.7429 4.77344ZM36.2571 6.77344C36.8094 6.77344 37.2571 6.32573 37.2571 5.77344C37.2571 5.22116 36.8094 4.77344 36.2571 4.77344L36.2571 5.77344L36.2571 6.77344ZM39.3429 4.77344C38.7906 4.77344 38.3429 5.22116 38.3429 5.77344C38.3429 6.32573 38.7906 6.77344 39.3429 6.77344L39.3429 5.77344L39.3429 4.77344ZM39.8572 6.77344C40.4094 6.77344 40.8572 6.32573 40.8572 5.77344C40.8572 5.22116 40.4094 4.77344 39.8572 4.77344L39.8572 5.77344L39.8572 6.77344ZM42.9429 4.77344C42.3906 4.77344 41.9429 5.22116 41.9429 5.77344C41.9429 6.32573 42.3906 6.77344 42.9429 6.77344L42.9429 5.77344L42.9429 4.77344ZM43.4572 6.77344C44.0094 6.77344 44.4572 6.32573 44.4572 5.77344C44.4572 5.22116 44.0094 4.77344 43.4572 4.77344L43.4572 5.77344L43.4572 6.77344ZM46.5429 4.77344C45.9906 4.77344 45.5429 5.22116 45.5429 5.77344C45.5429 6.32573 45.9906 6.77344 46.5429 6.77344L46.5429 5.77344L46.5429 4.77344ZM47.0572 6.77344C47.6094 6.77344 48.0572 6.32573 48.0572 5.77344C48.0572 5.22116 47.6094 4.77344 47.0572 4.77344L47.0572 5.77344L47.0572 6.77344ZM50.1429 4.77344C49.5906 4.77344 49.1429 5.22116 49.1429 5.77344C49.1429 6.32573 49.5906 6.77344 50.1429 6.77344L50.1429 5.77344L50.1429 4.77344ZM50.6572 6.77344C51.2094 6.77344 51.6572 6.32573 51.6572 5.77344C51.6572 5.22116 51.2094 4.77344 50.6572 4.77344L50.6572 5.77344L50.6572 6.77344ZM53.7429 4.77344C53.1906 4.77344 52.7429 5.22116 52.7429 5.77344C52.7429 6.32573 53.1906 6.77344 53.7429 6.77344L53.7429 5.77344L53.7429 4.77344ZM0 5.77344L-8.74228e-08 6.77344L0.257143 6.77344L0.257143 5.77344L0.257143 4.77344L8.74228e-08 4.77344L0 5.77344ZM3.34286 5.77344L3.34286 6.77344L3.85714 6.77344L3.85714 5.77344L3.85714 4.77344L3.34286 4.77344L3.34286 5.77344ZM6.94286 5.77344L6.94286 6.77344L7.45714 6.77344L7.45714 5.77344L7.45714 4.77344L6.94286 4.77344L6.94286 5.77344ZM10.5429 5.77344L10.5429 6.77344L11.0571 6.77344L11.0571 5.77344L11.0571 4.77344L10.5429 4.77344L10.5429 5.77344ZM14.1429 5.77344L14.1429 6.77344L14.6571 6.77344L14.6571 5.77344L14.6571 4.77344L14.1429 4.77344L14.1429 5.77344ZM17.7429 5.77344L17.7429 6.77344L18.2571 6.77344L18.2571 5.77344L18.2571 4.77344L17.7429 4.77344L17.7429 5.77344ZM21.3429 5.77344L21.3429 6.77344L21.8571 6.77344L21.8571 5.77344L21.8571 4.77344L21.3429 4.77344L21.3429 5.77344ZM24.9429 5.77344L24.9429 6.77344L25.4571 6.77344L25.4571 5.77344L25.4571 4.77344L24.9429 4.77344L24.9429 5.77344ZM28.5429 5.77344L28.5429 6.77344L29.0571 6.77344L29.0571 5.77344L29.0571 4.77344L28.5429 4.77344L28.5429 5.77344ZM32.1429 5.77344L32.1429 6.77344L32.6571 6.77344L32.6571 5.77344L32.6571 4.77344L32.1429 4.77344L32.1429 5.77344ZM35.7429 5.77344L35.7429 6.77344L36.2571 6.77344L36.2571 5.77344L36.2571 4.77344L35.7429 4.77344L35.7429 5.77344ZM39.3429 5.77344L39.3429 6.77344L39.8572 6.77344L39.8572 5.77344L39.8572 4.77344L39.3429 4.77344L39.3429 5.77344ZM42.9429 5.77344L42.9429 6.77344L43.4572 6.77344L43.4572 5.77344L43.4572 4.77344L42.9429 4.77344L42.9429 5.77344ZM46.5429 5.77344L46.5429 6.77344L47.0572 6.77344L47.0572 5.77344L47.0572 4.77344L46.5429 4.77344L46.5429 5.77344ZM50.1429 5.77344L50.1429 6.77344L50.6572 6.77344L50.6572 5.77344L50.6572 4.77344L50.1429 4.77344L50.1429 5.77344Z" fill="#979BAA"/>
</svg>
